<svg xmlns="http://www.w3.org/2000/svg" width="73.09" height="73.078" viewBox="0 0 73.09 73.078">
  <g id="Group_6841" data-name="Group 6841" transform="translate(6459.062 20578.039)">
    <path id="Path_4140" data-name="Path 4140" d="M-734.914,970.181l31.765,15.161-40.872,12.135-32.218-16.414Z" transform="translate(-5682.823 -21548.221)" fill="#ebbe73"/>
    <path id="Path_4141" data-name="Path 4141" d="M-635.416,1060.817l-40.758,14.477v-45.926l40.946-11.992Z" transform="translate(-5750.744 -21580.254)" fill="#deb068"/>
    <path id="Path_4142" data-name="Path 4142" d="M-776.238,1004.055l.086,42.644,32.058,19.553v-45.926Z" transform="translate(-5682.823 -21571.213)" fill="#f1c989"/>
    <g id="Group_6776" data-name="Group 6776">
      <g id="Group_1400" data-name="Group 1400" transform="translate(-6423.077 -20521.225)">
        <path id="Path_4147" data-name="Path 4147" d="M-622.484,1150.417l-.01-.234-.1.032.01.233a2.57,2.57,0,0,0-1.443,2.163s.683-.423.949-.053a1.946,1.946,0,0,1,.568-.4l.078,1.819a3.182,3.182,0,0,1,.01.362c-.018.121-.116.111-.131.011-.012-.083-.069-.067-.079,0s.056.233.189.169a.215.215,0,0,0,.123-.2l-.016-.377-.079-1.826a.835.835,0,0,1,.636.012s.555-.66.914-.479C-620.861,1151.654-621.043,1149.983-622.484,1150.417Z" transform="translate(636.935 -1149.176)" fill="#5b534d"/>
        <path id="Path_4148" data-name="Path 4148" d="M-621.833,1148.265c-.038-.883-.671-1.4-1.412-1.16l-1.983.651a2.118,2.118,0,0,0-1.274,2.042l.1,2.364c.038.883.671,1.4,1.412,1.16l1.983-.651a2.118,2.118,0,0,0,1.274-2.042Zm-1.19,3.985-1.983.651c-.546.179-1.013-.2-1.041-.856l-.1-2.363a1.562,1.562,0,0,1,.94-1.506l1.983-.651c.546-.179,1.013.2,1.042.856l.1,2.364A1.562,1.562,0,0,1-623.023,1152.25Z" transform="translate(638.618 -1147.045)" fill="#5b534d"/>
        <path id="Path_4149" data-name="Path 4149" d="M-641.782,1161.293l.244-.08-.081-1.887.44-.145-.613-.977-.513,1.347.441-.145Z" transform="translate(649.343 -1154.619)" fill="#5b534d"/>
        <path id="Path_4150" data-name="Path 4150" d="M-642,1167.191l.013.291,2.778-.912-.012-.291Z" transform="translate(649.139 -1160.1)" fill="#5b534d"/>
        <path id="Path_4151" data-name="Path 4151" d="M-637.094,1157.84l.441-.145.081,1.887.244-.08-.081-1.887.44-.144-.613-.977Z" transform="translate(645.807 -1153.459)" fill="#5b534d"/>
        <path id="Path_4152" data-name="Path 4152" d="M-642.033,1153.172l-1.983.651a2.117,2.117,0,0,0-1.274,2.042l.1,2.364c.038.883.671,1.4,1.412,1.16l1.983-.651a2.117,2.117,0,0,0,1.274-2.042l-.1-2.364C-640.659,1153.449-641.292,1152.928-642.033,1153.172Zm.221,5.145-1.983.651c-.546.179-1.014-.2-1.041-.856l-.1-2.364a1.561,1.561,0,0,1,.94-1.506l1.983-.651c.546-.18,1.014.2,1.042.855l.1,2.364A1.561,1.561,0,0,1-641.812,1158.317Z" transform="translate(651.371 -1151.163)" fill="#5b534d"/>
        <path id="Path_4153" data-name="Path 4153" d="M-658.768,1162.918l-.006,0-.073.023.19.531.159-.159.214.847-.281-.628-.13.132-.271-.685-.353.114a4.514,4.514,0,0,0-.246,1.786c.125.534.695.361.846.3l.057,1.436a2.619,2.619,0,0,0-.593.367c-.025.019-.016.061.011.052l1.277-.412c.026-.009.032-.054.007-.058a1.522,1.522,0,0,0-.615.021l-.056-1.434a1.05,1.05,0,0,0,.785-.832,3.248,3.248,0,0,0-.378-1.584Z" transform="translate(661.081 -1157.7)" fill="#5b534d"/>
        <path id="Path_4154" data-name="Path 4154" d="M-660.952,1159.3l-1.983.641a2.114,2.114,0,0,0-1.28,2.037l.093,2.367c.035.884.666,1.408,1.406,1.169l1.983-.64a2.115,2.115,0,0,0,1.28-2.037l-.093-2.366C-659.581,1159.582-660.212,1159.057-660.952,1159.3Zm1.147,3.65a1.559,1.559,0,0,1-.944,1.5l-1.983.641c-.546.176-1.012-.21-1.037-.862l-.093-2.367a1.559,1.559,0,0,1,.944-1.5l1.983-.641c.546-.176,1.012.21,1.037.862Z" transform="translate(664.218 -1155.322)" fill="#5b534d"/>
      </g>
      <g id="Group_6775" data-name="Group 6775">
        <g id="Group_6774" data-name="Group 6774">
          <path id="Path_4143" data-name="Path 4143" d="M-739.15,999.518l41.738-11.024,4.405,2.1-41.459,11.316Z" transform="translate(-5707.998 -21560.65)" fill="#e0d3c2"/>
          <path id="Path_4144" data-name="Path 4144" d="M-720.253,986.583l31.872,15.8,5.459-1.568-32.347-15.551Z" transform="translate(-5720.824 -21558.459)" fill="#e0d3c2"/>
          <path id="Path_4145" data-name="Path 4145" d="M-621.036,1035.245l5.459-1.568v12.458l-5.263,2.3Z" transform="translate(-5788.169 -21591.32)" fill="#dac4ae"/>
          <path id="Path_4146" data-name="Path 4146" d="M-739.189,1022.813l4.684,2.389v13.474l-4.7-2.911Z" transform="translate(-5707.958 -21583.945)" fill="#f7e8d5"/>
        </g>
        <g id="Group_1401" data-name="Group 1401" transform="translate(-6422.133 -20540.666)">
          <path id="Path_4155" data-name="Path 4155" d="M-642.544,1096.8l-18.708,5.906-.027-10.274,18.708-5.906Z" transform="translate(661.279 -1086.525)" fill="#f7e8d5"/>
          <path id="Path_4156" data-name="Path 4156" d="M-643.288,1097.2l-11.3,3.568v-.56l11.3-3.568Z" transform="translate(656.74 -1093.39)" fill="#998376"/>
          <path id="Path_4157" data-name="Path 4157" d="M-634.616,1104.792l-11.3,3.568v-.56l11.3-3.568Z" transform="translate(650.854 -1098.544)" fill="#998376"/>
          <path id="Path_4158" data-name="Path 4158" d="M-647.562,1106.356l-7.016,2.215v-.56l7.016-2.215Z" transform="translate(656.731 -1099.605)" fill="#8a766a"/>
          <path id="Path_4159" data-name="Path 4159" d="M-625.617,1102.19l-2.874.907,0-.56,2.874-.907Z" transform="translate(639.025 -1096.778)" fill="#6d5041"/>
          <path id="Path_4160" data-name="Path 4160" d="M-625.617,1102.19l-2.874.907,0-.56,2.874-.907Z" transform="translate(639.025 -1096.778)" fill="#7f6d62"/>
          <path id="Path_4161" data-name="Path 4161" d="M-647.535,1117.114l-7.016,2.215v-.56l7.016-2.215Z" transform="translate(656.713 -1106.907)" fill="#7f6d62"/>
          <path id="Path_4162" data-name="Path 4162" d="M-625.589,1112.948l-2.875.907v-.56l2.874-.907Z" transform="translate(639.006 -1104.08)" fill="#7f6d62"/>
          <path id="Path_4163" data-name="Path 4163" d="M-614.588,1099.748l-1.316.415v-.561l1.316-.415Z" transform="translate(630.481 -1095.12)" fill="#7f6d62"/>
          <path id="Path_4164" data-name="Path 4164" d="M-651.739,1126.078l-2.875.907v-.56l2.874-.907Z" transform="translate(656.755 -1112.992)" fill="#998376"/>
          <path id="Path_4165" data-name="Path 4165" d="M-640.71,1123.636l-1.315.415,0-.56,1.315-.415Z" transform="translate(648.211 -1111.334)" fill="#7f6d62"/>
          <path id="Path_4166" data-name="Path 4166" d="M-653.1,1117.289l-1.315.415v-.56l1.315-.415Z" transform="translate(656.619 -1107.026)" fill="#7f6d62"/>
        </g>
      </g>
    </g>
  </g>
</svg>
