<svg xmlns="http://www.w3.org/2000/svg" width="20" height="27" viewBox="0 0 20 27">
  <g id="Group_6900" data-name="Group 6900" transform="translate(-3530 21336)">
    <g id="Group_6899" data-name="Group 6899" transform="translate(-1567.67 615.742)">
      <path id="Union_37" data-name="Union 37" d="M3.237,17.984q-.157-.15-.308-.306a10.366,10.366,0,0,1-1.221-1.533,10.5,10.5,0,0,1-1.5-3.7,10.82,10.82,0,0,1,0-4.174,10.5,10.5,0,0,1,1.5-3.7A10.366,10.366,0,0,1,2.929,3.033a10.163,10.163,0,0,1,1.48-1.265,9.9,9.9,0,0,1,1.7-.955,9.7,9.7,0,0,1,7.785,0,9.9,9.9,0,0,1,1.7.955,10.163,10.163,0,0,1,1.48,1.265,10.366,10.366,0,0,1,1.221,1.533,10.5,10.5,0,0,1,1.5,3.7,10.82,10.82,0,0,1,0,4.174,10.5,10.5,0,0,1-1.5,3.7,10.367,10.367,0,0,1-1.214,1.525L10.091,27Zm1.3-7.629A5.572,5.572,0,0,0,10,16.016a5.572,5.572,0,0,0,5.466-5.66A5.572,5.572,0,0,0,10,4.7,5.572,5.572,0,0,0,4.534,10.356Z" transform="translate(5097.67 -21951.742)" fill="#ff3636"/>
      <path id="Subtraction_4" data-name="Subtraction 4" d="M.131,27h0L0,26.827V16.015H.04a5.561,5.561,0,0,0,5.444-5.66A5.561,5.561,0,0,0,.04,4.7H0V0H.04A9.663,9.663,0,0,1,2.048.21a9.632,9.632,0,0,1,1.87.6,9.847,9.847,0,0,1,1.692.955A10.133,10.133,0,0,1,7.083,3.033,10.36,10.36,0,0,1,8.3,4.566a10.493,10.493,0,0,1,.918,1.759A10.6,10.6,0,0,1,9.8,8.269a10.831,10.831,0,0,1,.2,2.087,10.831,10.831,0,0,1-.2,2.087,10.6,10.6,0,0,1-.58,1.944A10.492,10.492,0,0,1,8.3,16.145,10.358,10.358,0,0,1,7.09,17.67L.131,27Z" transform="translate(5107.67 -21951.742)" fill="#f40000"/>
    </g>
    <circle id="Ellipse_23" data-name="Ellipse 23" cx="6" cy="6" r="6" transform="translate(3534 -21332)" fill="#fff"/>
  </g>
</svg>
