<svg xmlns="http://www.w3.org/2000/svg" width="151.7" height="31.82" viewBox="0 0 151.7 31.82">
  <g id="Group_6" data-name="Group 6" transform="translate(-280.994 -397.803)">
    <g id="Group_5" data-name="Group 5" transform="translate(280.994 397.803)">
      <g id="Group_1" data-name="Group 1" transform="translate(36.999 6.489)">
        <path id="Path_1" data-name="Path 1" d="M90.251,31.2A2.666,2.666,0,0,1,89.2,33.436a4.939,4.939,0,0,1-3.034.8,8.052,8.052,0,0,1-1.564-.144,5.832,5.832,0,0,1-1.218-.377,2.412,2.412,0,0,1-.782-.535.915.915,0,0,1-.279-.616,1,1,0,0,1,.144-.512,1.27,1.27,0,0,1,.436-.422,6.966,6.966,0,0,0,1.407.791,4.609,4.609,0,0,0,1.829.346q2.319,0,2.319-1.564,0-1.274-1.541-1.649l-1.851-.49a4.029,4.029,0,0,1-1.986-1.038,2.484,2.484,0,0,1-.625-1.753,2.725,2.725,0,0,1,.234-1.115,2.582,2.582,0,0,1,.724-.939,3.677,3.677,0,0,1,1.218-.638,5.544,5.544,0,0,1,1.708-.234,5.884,5.884,0,0,1,2.522.458c.638.306.962.661.962,1.061a.935.935,0,0,1-.144.512.881.881,0,0,1-.391.333,7.051,7.051,0,0,0-1.137-.58,4.452,4.452,0,0,0-1.739-.315,2.943,2.943,0,0,0-1.6.377,1.2,1.2,0,0,0-.594,1.07,1.242,1.242,0,0,0,.333.872,2.152,2.152,0,0,0,1.115.535l1.541.377a4.869,4.869,0,0,1,2.279,1.128A2.7,2.7,0,0,1,90.251,31.2Z" transform="translate(-82.327 -19.333)" fill="#1d76bb"/>
        <path id="Path_2" data-name="Path 2" d="M106.523,29.089a2.1,2.1,0,0,1-.49.054c-.638,0-.962-.27-.962-.8V14.572a2.35,2.35,0,0,1,.346-.1,2.245,2.245,0,0,1,.5-.054c.625,0,.939.27.939.8V23.26l4.89-4.732a1.4,1.4,0,0,1,.836.257.738.738,0,0,1,.3.616.82.82,0,0,1-.2.548c-.135.157-.315.337-.535.548l-3.6,3.145,4.98,4.463a1.339,1.339,0,0,1-.3.782.867.867,0,0,1-.679.292,1.173,1.173,0,0,1-.616-.166,2.659,2.659,0,0,1-.571-.481L106.859,24v5C106.783,29.021,106.671,29.053,106.523,29.089Z" transform="translate(-94.851 -14.42)" fill="#1d76bb"/>
        <path id="Path_3" data-name="Path 3" d="M128.191,31.756c-.193-.355-.418-.809-.669-1.361s-.517-1.168-.791-1.852-.553-1.411-.836-2.175-.553-1.541-.8-2.332a1.149,1.149,0,0,1,.414-.36,1.164,1.164,0,0,1,.548-.135.916.916,0,0,1,.616.2,1.648,1.648,0,0,1,.413.669c.445,1.263.912,2.508,1.393,3.726s1.032,2.5,1.64,3.838h.09a16.768,16.768,0,0,0,.737-1.685c.252-.661.5-1.366.746-2.108s.478-1.5.692-2.265.4-1.5.571-2.2a3.2,3.2,0,0,1,.333-.121,1.462,1.462,0,0,1,.422-.054.994.994,0,0,1,.625.189.679.679,0,0,1,.247.571,7.858,7.858,0,0,1-.31,1.631c-.207.791-.481,1.672-.813,2.656s-.719,1.99-1.15,3.024a27.471,27.471,0,0,1-1.317,2.755,19.73,19.73,0,0,1-1.887,2.912,2.222,2.222,0,0,1-1.551,1.015,1.089,1.089,0,0,1-.791-.27,1.16,1.16,0,0,1-.346-.625,9.642,9.642,0,0,0,.8-.8c.3-.328.593-.679.894-1.061s.58-.768.849-1.173a9.29,9.29,0,0,0,.669-1.16,1.878,1.878,0,0,1-.7-.391A3.507,3.507,0,0,1,128.191,31.756Z" transform="translate(-105.873 -19.442)" fill="#1d76bb"/>
        <path id="Path_4" data-name="Path 4" d="M154.165,30.743a4.272,4.272,0,0,1-2.535-.692,2.631,2.631,0,0,1-.971-2.3v-10.6a2.35,2.35,0,0,1,.346-.1,2.245,2.245,0,0,1,.5-.054c.625,0,.939.27.939.8V20.37h3.658a1.781,1.781,0,0,1,.135.3,1.227,1.227,0,0,1,.067.414c0,.508-.225.76-.669.76h-3.191v5.8a1.465,1.465,0,0,0,.5,1.263,2.348,2.348,0,0,0,1.416.368,3.126,3.126,0,0,0,.849-.135,3.578,3.578,0,0,0,.782-.315,1.642,1.642,0,0,1,.247.333.935.935,0,0,1,.112.467.923.923,0,0,1-.58.8A3.477,3.477,0,0,1,154.165,30.743Z" transform="translate(-119.951 -15.84)" fill="#1d76bb"/>
        <path id="Path_5" data-name="Path 5" d="M167.9,29.848q.6,2.926,3.838,2.926a4.428,4.428,0,0,0,1.694-.31,4.847,4.847,0,0,0,1.2-.669.942.942,0,0,1,.535.849.877.877,0,0,1-.279.6,2.492,2.492,0,0,1-.76.512,5,5,0,0,1-1.115.355,6.915,6.915,0,0,1-1.371.135,5.758,5.758,0,0,1-4.094-1.407,5.367,5.367,0,0,1-1.505-4.108,6.437,6.437,0,0,1,.368-2.265,4.9,4.9,0,0,1,1.029-1.685,4.424,4.424,0,0,1,1.573-1.061,5.242,5.242,0,0,1,1.986-.368,5.06,5.06,0,0,1,1.852.333,4.253,4.253,0,0,1,1.461.948,4.474,4.474,0,0,1,.962,1.452,4.806,4.806,0,0,1,.346,1.843.93.93,0,0,1-.225.7,1.009,1.009,0,0,1-.625.257Zm3.083-5.042a2.966,2.966,0,0,0-2.256.948,3.99,3.99,0,0,0-.939,2.71l6.139-.849a3.277,3.277,0,0,0-.858-2.018,2.718,2.718,0,0,0-2.085-.791Z" transform="translate(-128.422 -19.341)" fill="#1d76bb"/>
        <path id="Path_6" data-name="Path 6" d="M196.187,24.846a3.783,3.783,0,0,0-1.407.257,2.986,2.986,0,0,0-1.115.76,3.529,3.529,0,0,0-.737,1.25,5.026,5.026,0,0,0-.27,1.707,4.1,4.1,0,0,0,.962,2.935,3.358,3.358,0,0,0,2.566,1.015,4.155,4.155,0,0,0,1.564-.257,5.926,5.926,0,0,0,1.115-.593,1.33,1.33,0,0,1,.4.333.78.78,0,0,1,.157.49.838.838,0,0,1-.247.58,2.1,2.1,0,0,1-.679.467,4.741,4.741,0,0,1-1.025.324,6.4,6.4,0,0,1-1.285.121,6.7,6.7,0,0,1-2.144-.333,4.666,4.666,0,0,1-1.7-1,4.514,4.514,0,0,1-1.115-1.685,6.484,6.484,0,0,1-.4-2.4,6.136,6.136,0,0,1,.422-2.377,5.053,5.053,0,0,1,1.137-1.708,4.58,4.58,0,0,1,1.685-1.038,6.135,6.135,0,0,1,2.063-.346,6.4,6.4,0,0,1,1.285.121,3.842,3.842,0,0,1,1.015.346,2.131,2.131,0,0,1,.661.5.876.876,0,0,1,.234.571.743.743,0,0,1-.157.467,1.067,1.067,0,0,1-.4.315,5.948,5.948,0,0,0-1.07-.58A3.987,3.987,0,0,0,196.187,24.846Z" transform="translate(-142.063 -19.336)" fill="#1d76bb"/>
        <path id="Path_7" data-name="Path 7" d="M216.433,29.089a2.1,2.1,0,0,1-.49.054c-.638,0-.962-.27-.962-.8V14.572a2.351,2.351,0,0,1,.346-.1,2.245,2.245,0,0,1,.5-.054c.625,0,.939.27.939.8v4.018a6.773,6.773,0,0,1,1.263-.557,5.155,5.155,0,0,1,1.64-.247,5.52,5.52,0,0,1,1.708.247,3.556,3.556,0,0,1,1.326.746,3.413,3.413,0,0,1,.872,1.272,4.776,4.776,0,0,1,.315,1.8v6.494a2.35,2.35,0,0,1-.346.1,2.132,2.132,0,0,1-.481.054c-.638,0-.962-.27-.962-.8v-5.8a2.5,2.5,0,0,0-.737-1.986,2.83,2.83,0,0,0-1.942-.647,3.842,3.842,0,0,0-1.461.279,5.025,5.025,0,0,0-1.2.679V28.99A2.526,2.526,0,0,1,216.433,29.089Z" transform="translate(-155.366 -14.42)" fill="#1d76bb"/>
        <path id="Path_8" data-name="Path 8" d="M252.978,23.345a4.938,4.938,0,0,1,3.078.872,3.229,3.229,0,0,1,1.137,2.746v5.29A1.243,1.243,0,0,1,257,33a1.841,1.841,0,0,1-.571.481,6.007,6.007,0,0,1-1.416.548,7.853,7.853,0,0,1-2.018.234,5.506,5.506,0,0,1-3.249-.827,2.753,2.753,0,0,1-1.151-2.386,2.634,2.634,0,0,1,.962-2.22,5.179,5.179,0,0,1,2.7-.926l3.169-.31v-.625a1.934,1.934,0,0,0-.669-1.631,2.869,2.869,0,0,0-1.807-.512,5.628,5.628,0,0,0-1.762.27,9.656,9.656,0,0,0-1.474.6,2.22,2.22,0,0,1-.324-.355.731.731,0,0,1-.144-.445.819.819,0,0,1,.157-.512,1.492,1.492,0,0,1,.49-.377,5.564,5.564,0,0,1,1.384-.481A7.179,7.179,0,0,1,252.978,23.345ZM253,32.787a5.366,5.366,0,0,0,1.551-.189,3.52,3.52,0,0,0,.881-.368V28.994l-2.769.292a3.443,3.443,0,0,0-1.717.526,1.412,1.412,0,0,0-.557,1.218,1.507,1.507,0,0,0,.647,1.308,3.491,3.491,0,0,0,1.964.449Z" transform="translate(-173.876 -19.332)" fill="#1d76bb"/>
        <path id="Path_9" data-name="Path 9" d="M274.533,29.848q.6,2.926,3.838,2.926a4.428,4.428,0,0,0,1.694-.31,4.848,4.848,0,0,0,1.2-.669.942.942,0,0,1,.535.849.877.877,0,0,1-.279.6,2.492,2.492,0,0,1-.76.512,5,5,0,0,1-1.115.355,6.6,6.6,0,0,1-1.371.135,5.758,5.758,0,0,1-4.094-1.407,5.368,5.368,0,0,1-1.505-4.108,6.437,6.437,0,0,1,.368-2.265,4.9,4.9,0,0,1,1.029-1.685,4.424,4.424,0,0,1,1.573-1.061,5.242,5.242,0,0,1,1.986-.368,5.06,5.06,0,0,1,1.852.333,4.253,4.253,0,0,1,1.461.948,4.474,4.474,0,0,1,.962,1.452,4.8,4.8,0,0,1,.346,1.843.93.93,0,0,1-.225.7,1.009,1.009,0,0,1-.625.257Zm3.083-5.042a2.966,2.966,0,0,0-2.256.948,3.99,3.99,0,0,0-.939,2.71l6.14-.85A3.276,3.276,0,0,0,279.7,25.6,2.727,2.727,0,0,0,277.616,24.806Z" transform="translate(-187.131 -19.341)" fill="#1d76bb"/>
        <path id="Path_10" data-name="Path 10" d="M300.539,33.894a2.427,2.427,0,0,1-.333.1,2.1,2.1,0,0,1-.49.054c-.638,0-.962-.27-.962-.8V25.679a1.513,1.513,0,0,1,.189-.813,2.063,2.063,0,0,1,.638-.593,5.883,5.883,0,0,1,1.573-.661,8.367,8.367,0,0,1,2.243-.279c1.191,0,1.784.3,1.784.894a1.227,1.227,0,0,1-.067.414,1.023,1.023,0,0,1-.18.324c-.148-.031-.342-.058-.58-.09a5.448,5.448,0,0,0-.714-.045,7.022,7.022,0,0,0-1.807.211,5.557,5.557,0,0,0-1.294.5v8.35Z" transform="translate(-201.483 -19.324)" fill="#1d76bb"/>
        <path id="Path_11" data-name="Path 11" d="M325.1,28.8a6.711,6.711,0,0,1-.36,2.256,4.916,4.916,0,0,1-1.015,1.717,4.358,4.358,0,0,1-1.6,1.092,6.023,6.023,0,0,1-4.2,0,4.486,4.486,0,0,1-1.609-1.092,4.876,4.876,0,0,1-1.029-1.717,6.7,6.7,0,0,1-.355-2.256,6.475,6.475,0,0,1,.368-2.256,5.032,5.032,0,0,1,1.038-1.717,4.41,4.41,0,0,1,1.609-1.092,5.9,5.9,0,0,1,4.153,0,4.358,4.358,0,0,1,1.6,1.092,5,5,0,0,1,1.025,1.717A6.37,6.37,0,0,1,325.1,28.8Zm-5.065-3.973a2.935,2.935,0,0,0-2.386,1.047,4.453,4.453,0,0,0-.872,2.926,4.49,4.49,0,0,0,.858,2.935,2.938,2.938,0,0,0,2.4,1.038,2.9,2.9,0,0,0,2.386-1.047,4.528,4.528,0,0,0,.849-2.926,4.5,4.5,0,0,0-.858-2.926A2.9,2.9,0,0,0,320.031,24.83Z" transform="translate(-210.396 -19.343)" fill="#1d76bb"/>
      </g>
      <g id="Group_4" data-name="Group 4" transform="translate(0 0)">
        <g id="Group_2" data-name="Group 2">
          <path id="Path_12" data-name="Path 12" d="M9.989,14.522l2.175-2.081.3.3.1-.1.4.4-.1.1.247.247-1.335,1.366,2.953.2s5.758-5.788,6.144-6.144S23.7,6.522,24.4,7.223c.328.328.216,1.865-1.865,3.946l-5.8,5.8L17,19.986l1.357-1.357.283.283.108-.108.351.351-.1.1.283.283L17.14,21.676l1.106,9.959A15.905,15.905,0,1,0,.34,13.695Z" transform="translate(-0.188 0.03)" fill="#28a8e0"/>
          <path id="Path_13" data-name="Path 13" d="M10.588,36.981.018,33.57A15.875,15.875,0,0,0,3.379,44.19Z" transform="translate(0.004 -18.475)" fill="#28a8e0"/>
          <path id="Path_14" data-name="Path 14" d="M20.062,46.48l-7.141,7.3a15.867,15.867,0,0,0,10.849,3.6Z" transform="translate(-7.115 -25.583)" fill="#28a8e0"/>
        </g>
        <g id="Group_3" data-name="Group 3" transform="translate(5.806 4.583)">
          <path id="Path_15" data-name="Path 15" d="M42.623,16.8,36.83,22.593l.257,3.02,1.357-1.357.283.283.108-.108.351.351-.1.1.283.283L37.23,27.3l1.106,9.959A15.9,15.9,0,0,0,47.351,10.18l-2.787,2.786C44.785,13.452,44.529,14.9,42.623,16.8Z" transform="translate(-26.085 -10.18)" fill="#1d76bb"/>
          <path id="Path_16" data-name="Path 16" d="M20.062,46.48l-7.141,7.3a15.768,15.768,0,0,0,10.849,3.6Z" transform="translate(-12.921 -30.166)" fill="#1d76bb"/>
        </g>
      </g>
    </g>
  </g>
</svg>
