<svg xmlns="http://www.w3.org/2000/svg" width="38.586" height="38.596" viewBox="0 0 38.586 38.596">
  <g id="Group_6906" data-name="Group 6906" transform="translate(16674 22383)">
    <g id="Group_4" data-name="Group 4" transform="translate(-16674 -22383)">
      <g id="Group_2" data-name="Group 2">
        <path id="Path_12" data-name="Path 12" d="M12.043,17.62,14.682,15.1l.36.36.12-.12.491.48-.12.125.3.3L14.213,17.9l3.581.24s6.983-7.021,7.452-7.452,3.429-2.769,4.279-1.919c.4.4.262,2.262-2.262,4.786l-7.032,7.032.311,3.663L22.188,22.6l.343.343.131-.131.425.425-.125.125.343.343L20.717,26.3l1.341,12.079A19.292,19.292,0,1,0,.34,16.617Z" transform="translate(-0.156 0.03)" fill="#fff"/>
        <path id="Path_13" data-name="Path 13" d="M12.843,37.707.022,33.57A19.255,19.255,0,0,0,4.1,46.451Z" transform="translate(0.004 -15.261)" fill="#fff"/>
        <path id="Path_16" data-name="Path 16" d="M21.583,46.48l-8.662,8.858A19.126,19.126,0,0,0,26.08,59.7Z" transform="translate(-5.879 -21.133)" fill="#e8e8e8"/>
      </g>
      <g id="Group_3" data-name="Group 3" transform="translate(7.042 5.559)">
        <path id="Path_15" data-name="Path 15" d="M43.856,18.209,36.83,25.236l.311,3.663,1.646-1.646.343.343.131-.131.425.425-.125.125.343.343-2.589,2.589,1.341,12.079A19.289,19.289,0,0,0,49.591,10.18l-3.38,3.38C46.478,14.148,46.168,15.9,43.856,18.209Z" transform="translate(-23.797 -10.18)" fill="#e8e8e8"/>
      </g>
    </g>
  </g>
</svg>
