<svg id="Group_4" data-name="Group 4" xmlns="http://www.w3.org/2000/svg" width="31.813" height="31.82" viewBox="0 0 31.813 31.82">
  <g id="Group_2" data-name="Group 2">
    <path id="Path_12" data-name="Path 12" d="M9.989,14.522l2.175-2.081.3.3.1-.1.4.4-.1.1.247.247-1.335,1.366,2.953.2s5.758-5.788,6.144-6.144S23.7,6.522,24.4,7.223c.328.328.216,1.865-1.865,3.946l-5.8,5.8L17,19.986l1.357-1.357.283.283.108-.108.351.351-.1.1.283.283L17.14,21.676l1.106,9.959A15.905,15.905,0,1,0,.34,13.695Z" transform="translate(-0.188 0.03)" fill="#28a8e0"/>
    <path id="Path_13" data-name="Path 13" d="M10.588,36.981.018,33.57A15.875,15.875,0,0,0,3.379,44.19Z" transform="translate(0.004 -18.475)" fill="#28a8e0"/>
    <path id="Path_14" data-name="Path 14" d="M20.062,46.48l-7.141,7.3a15.867,15.867,0,0,0,10.849,3.6Z" transform="translate(-7.115 -25.583)" fill="#28a8e0"/>
  </g>
  <g id="Group_3" data-name="Group 3" transform="translate(5.806 4.583)">
    <path id="Path_15" data-name="Path 15" d="M42.623,16.8,36.83,22.593l.257,3.02,1.357-1.357.283.283.108-.108.351.351-.1.1.283.283L37.23,27.3l1.106,9.959A15.9,15.9,0,0,0,47.351,10.18l-2.787,2.786C44.785,13.452,44.529,14.9,42.623,16.8Z" transform="translate(-26.085 -10.18)" fill="#1d76bb"/>
    <path id="Path_16" data-name="Path 16" d="M20.062,46.48l-7.141,7.3a15.768,15.768,0,0,0,10.849,3.6Z" transform="translate(-12.921 -30.166)" fill="#1d76bb"/>
  </g>
</svg>
