<svg id="Group_6770" data-name="Group 6770" xmlns="http://www.w3.org/2000/svg" width="184" height="38.594" viewBox="0 0 184 38.594">
  <g id="Group_1" data-name="Group 1" transform="translate(44.877 7.871)">
    <path id="Path_1" data-name="Path 1" d="M91.938,32.875a3.233,3.233,0,0,1-1.27,2.709,5.99,5.99,0,0,1-3.679.976,9.765,9.765,0,0,1-1.9-.174,7.072,7.072,0,0,1-1.477-.458,2.926,2.926,0,0,1-.948-.649,1.11,1.11,0,0,1-.338-.747,1.218,1.218,0,0,1,.174-.621,1.54,1.54,0,0,1,.529-.512,8.45,8.45,0,0,0,1.706.959,5.591,5.591,0,0,0,2.219.42q2.813,0,2.813-1.9,0-1.545-1.87-2l-2.245-.594a4.888,4.888,0,0,1-2.409-1.259,3.013,3.013,0,0,1-.758-2.126,3.305,3.305,0,0,1,.283-1.352,3.132,3.132,0,0,1,.878-1.139,4.46,4.46,0,0,1,1.477-.774,6.724,6.724,0,0,1,2.072-.284,7.137,7.137,0,0,1,3.059.556c.774.371,1.166.8,1.166,1.286a1.134,1.134,0,0,1-.174.621,1.069,1.069,0,0,1-.474.4,8.551,8.551,0,0,0-1.379-.7,5.4,5.4,0,0,0-2.11-.382,3.569,3.569,0,0,0-1.935.458,1.457,1.457,0,0,0-.721,1.3,1.506,1.506,0,0,0,.4,1.058,2.611,2.611,0,0,0,1.352.649l1.87.458a5.905,5.905,0,0,1,2.764,1.368A3.273,3.273,0,0,1,91.938,32.875Z" transform="translate(-82.327 -18.478)" fill="#fff"/>
    <path id="Path_2" data-name="Path 2" d="M106.832,32.212a2.544,2.544,0,0,1-.594.065c-.774,0-1.166-.327-1.166-.976V14.6a2.852,2.852,0,0,1,.42-.12,2.723,2.723,0,0,1,.611-.065c.758,0,1.139.327,1.139.976v9.746l5.931-5.74a1.7,1.7,0,0,1,1.014.311.9.9,0,0,1,.365.747.994.994,0,0,1-.245.665c-.163.191-.381.409-.649.665L109.3,25.605l6.04,5.414a1.624,1.624,0,0,1-.365.948,1.052,1.052,0,0,1-.823.354,1.422,1.422,0,0,1-.747-.2,3.226,3.226,0,0,1-.692-.583l-5.468-5.495V32.1C107.148,32.13,107.011,32.168,106.832,32.212Z" transform="translate(-92.675 -14.42)" fill="#fff"/>
    <path id="Path_3" data-name="Path 3" d="M128.851,33.505c-.234-.431-.507-.981-.812-1.651s-.627-1.417-.959-2.246-.67-1.712-1.014-2.638-.67-1.87-.976-2.829a1.393,1.393,0,0,1,.5-.436,1.412,1.412,0,0,1,.665-.163,1.111,1.111,0,0,1,.747.245,2,2,0,0,1,.5.812c.54,1.532,1.107,3.042,1.69,4.519s1.252,3.035,1.99,4.656h.109a20.347,20.347,0,0,0,.894-2.044c.305-.8.611-1.657.9-2.557s.58-1.821.839-2.747.491-1.821.692-2.666a3.883,3.883,0,0,1,.4-.147,1.774,1.774,0,0,1,.512-.065,1.205,1.205,0,0,1,.758.229.824.824,0,0,1,.3.692,9.537,9.537,0,0,1-.376,1.979c-.251.959-.583,2.028-.987,3.221s-.872,2.414-1.4,3.668a33.3,33.3,0,0,1-1.6,3.342,23.936,23.936,0,0,1-2.289,3.532,2.7,2.7,0,0,1-1.881,1.232,1.321,1.321,0,0,1-.959-.327,1.407,1.407,0,0,1-.42-.758,11.7,11.7,0,0,0,.976-.976c.36-.4.72-.823,1.085-1.286s.7-.932,1.03-1.423a11.258,11.258,0,0,0,.812-1.406,2.278,2.278,0,0,1-.85-.474A4.253,4.253,0,0,1,128.851,33.505Z" transform="translate(-101.781 -18.569)" fill="#fff"/>
    <path id="Path_4" data-name="Path 4" d="M154.912,33.669a5.181,5.181,0,0,1-3.074-.839,3.191,3.191,0,0,1-1.177-2.791V17.185a2.85,2.85,0,0,1,.42-.12A2.724,2.724,0,0,1,151.69,17c.758,0,1.139.327,1.139.976v3.113h4.437a2.159,2.159,0,0,1,.163.365,1.488,1.488,0,0,1,.081.5c0,.616-.273.921-.812.921h-3.871v7.038a1.776,1.776,0,0,0,.611,1.532,2.848,2.848,0,0,0,1.717.447,3.792,3.792,0,0,0,1.03-.163,4.341,4.341,0,0,0,.948-.382,1.992,1.992,0,0,1,.3.4,1.134,1.134,0,0,1,.136.567,1.119,1.119,0,0,1-.7.976A4.217,4.217,0,0,1,154.912,33.669Z" transform="translate(-113.413 -15.593)" fill="#fff"/>
    <path id="Path_5" data-name="Path 5" d="M168.3,31.231q.728,3.549,4.656,3.549a5.371,5.371,0,0,0,2.055-.376,5.881,5.881,0,0,0,1.461-.812,1.142,1.142,0,0,1,.649,1.03,1.064,1.064,0,0,1-.338.731,3.023,3.023,0,0,1-.921.621,6.064,6.064,0,0,1-1.352.431,8.387,8.387,0,0,1-1.663.163,6.985,6.985,0,0,1-4.966-1.706,6.51,6.51,0,0,1-1.826-4.983,7.809,7.809,0,0,1,.447-2.747,5.941,5.941,0,0,1,1.248-2.044,5.367,5.367,0,0,1,1.908-1.286,6.359,6.359,0,0,1,2.409-.447,6.138,6.138,0,0,1,2.246.4,5.159,5.159,0,0,1,1.772,1.15,5.426,5.426,0,0,1,1.166,1.761,5.829,5.829,0,0,1,.42,2.235,1.128,1.128,0,0,1-.273.85,1.224,1.224,0,0,1-.758.311Zm3.739-6.116a3.6,3.6,0,0,0-2.736,1.15,4.84,4.84,0,0,0-1.139,3.287l7.446-1.03a3.975,3.975,0,0,0-1.041-2.447,3.3,3.3,0,0,0-2.529-.96Z" transform="translate(-120.41 -18.486)" fill="#fff"/>
    <path id="Path_6" data-name="Path 6" d="M197.328,25.166a4.588,4.588,0,0,0-1.706.311,3.621,3.621,0,0,0-1.352.921,4.279,4.279,0,0,0-.894,1.516,6.1,6.1,0,0,0-.327,2.071,4.976,4.976,0,0,0,1.166,3.559,4.073,4.073,0,0,0,3.113,1.232,5.039,5.039,0,0,0,1.9-.311,7.188,7.188,0,0,0,1.352-.72,1.613,1.613,0,0,1,.485.4.946.946,0,0,1,.191.594,1.017,1.017,0,0,1-.3.7,2.546,2.546,0,0,1-.823.567,5.751,5.751,0,0,1-1.243.392,7.769,7.769,0,0,1-1.559.147,8.125,8.125,0,0,1-2.6-.4,5.66,5.66,0,0,1-2.06-1.216,5.475,5.475,0,0,1-1.352-2.044,7.865,7.865,0,0,1-.485-2.911,7.441,7.441,0,0,1,.512-2.884,6.129,6.129,0,0,1,1.379-2.071,5.555,5.555,0,0,1,2.044-1.259,7.44,7.44,0,0,1,2.5-.42,7.769,7.769,0,0,1,1.559.147,4.66,4.66,0,0,1,1.232.42,2.585,2.585,0,0,1,.8.611,1.063,1.063,0,0,1,.283.692.9.9,0,0,1-.191.567,1.294,1.294,0,0,1-.485.382,7.212,7.212,0,0,0-1.3-.7A4.836,4.836,0,0,0,197.328,25.166Z" transform="translate(-131.68 -18.483)" fill="#fff"/>
    <path id="Path_7" data-name="Path 7" d="M216.742,32.212a2.545,2.545,0,0,1-.594.065c-.774,0-1.166-.327-1.166-.976V14.6a2.851,2.851,0,0,1,.42-.12,2.723,2.723,0,0,1,.61-.065c.758,0,1.139.327,1.139.976v4.873a8.216,8.216,0,0,1,1.532-.676,6.253,6.253,0,0,1,1.99-.3,6.7,6.7,0,0,1,2.071.3,4.312,4.312,0,0,1,1.608.9,4.139,4.139,0,0,1,1.058,1.543,5.793,5.793,0,0,1,.382,2.18V32.1a2.853,2.853,0,0,1-.42.12,2.586,2.586,0,0,1-.583.065c-.774,0-1.167-.327-1.167-.976V24.269a3.034,3.034,0,0,0-.894-2.409,3.433,3.433,0,0,0-2.355-.785,4.66,4.66,0,0,0-1.772.338,6.1,6.1,0,0,0-1.45.823v9.855A3.067,3.067,0,0,1,216.742,32.212Z" transform="translate(-142.672 -14.42)" fill="#fff"/>
    <path id="Path_8" data-name="Path 8" d="M253.91,23.345a5.989,5.989,0,0,1,3.734,1.058,3.916,3.916,0,0,1,1.379,3.331v6.416a1.508,1.508,0,0,1-.229.9,2.234,2.234,0,0,1-.692.583,7.286,7.286,0,0,1-1.717.665,9.525,9.525,0,0,1-2.447.283,6.679,6.679,0,0,1-3.941-1,3.339,3.339,0,0,1-1.4-2.894A3.194,3.194,0,0,1,249.767,30a6.282,6.282,0,0,1,3.276-1.123l3.844-.376v-.758a2.346,2.346,0,0,0-.812-1.979,3.479,3.479,0,0,0-2.192-.621,6.826,6.826,0,0,0-2.137.327,11.708,11.708,0,0,0-1.788.731,2.692,2.692,0,0,1-.393-.431.887.887,0,0,1-.174-.54.993.993,0,0,1,.191-.621,1.81,1.81,0,0,1,.594-.458,6.747,6.747,0,0,1,1.679-.583A8.707,8.707,0,0,1,253.91,23.345Zm.027,11.453a6.507,6.507,0,0,0,1.881-.229,4.272,4.272,0,0,0,1.068-.447V30.2l-3.358.355a4.177,4.177,0,0,0-2.082.638,1.713,1.713,0,0,0-.676,1.477,1.828,1.828,0,0,0,.785,1.586,4.234,4.234,0,0,0,2.382.545Z" transform="translate(-157.966 -18.477)" fill="#fff"/>
    <path id="Path_9" data-name="Path 9" d="M274.928,31.231q.728,3.549,4.656,3.549a5.372,5.372,0,0,0,2.055-.376,5.884,5.884,0,0,0,1.461-.812,1.142,1.142,0,0,1,.649,1.03,1.064,1.064,0,0,1-.338.731,3.023,3.023,0,0,1-.921.621,6.062,6.062,0,0,1-1.352.431,8,8,0,0,1-1.663.163,6.985,6.985,0,0,1-4.966-1.706,6.51,6.51,0,0,1-1.826-4.983,7.805,7.805,0,0,1,.447-2.747,5.939,5.939,0,0,1,1.248-2.044,5.367,5.367,0,0,1,1.908-1.286,6.358,6.358,0,0,1,2.409-.447,6.138,6.138,0,0,1,2.246.4,5.157,5.157,0,0,1,1.772,1.15,5.427,5.427,0,0,1,1.167,1.761,5.826,5.826,0,0,1,.42,2.235,1.128,1.128,0,0,1-.273.85,1.224,1.224,0,0,1-.758.311Zm3.739-6.116a3.6,3.6,0,0,0-2.736,1.15,4.84,4.84,0,0,0-1.139,3.287l7.447-1.03a3.974,3.974,0,0,0-1.041-2.447A3.307,3.307,0,0,0,278.667,25.115Z" transform="translate(-168.915 -18.486)" fill="#fff"/>
    <path id="Path_10" data-name="Path 10" d="M300.919,36.143a2.948,2.948,0,0,1-.4.12,2.544,2.544,0,0,1-.594.065c-.774,0-1.167-.327-1.167-.976V26.178a1.835,1.835,0,0,1,.229-.987,2.5,2.5,0,0,1,.774-.72,7.135,7.135,0,0,1,1.908-.8,10.15,10.15,0,0,1,2.72-.338c1.444,0,2.164.36,2.164,1.085a1.49,1.49,0,0,1-.081.5,1.244,1.244,0,0,1-.218.392c-.18-.038-.414-.071-.7-.109a6.609,6.609,0,0,0-.866-.054,8.517,8.517,0,0,0-2.191.256,6.743,6.743,0,0,0-1.57.611V36.143Z" transform="translate(-180.772 -18.471)" fill="#fff"/>
    <path id="Path_11" data-name="Path 11" d="M327.259,29.962a8.14,8.14,0,0,1-.436,2.736,5.961,5.961,0,0,1-1.231,2.082,5.286,5.286,0,0,1-1.935,1.325,7.306,7.306,0,0,1-5.091,0,5.442,5.442,0,0,1-1.951-1.325,5.915,5.915,0,0,1-1.248-2.082,8.124,8.124,0,0,1-.431-2.736,7.854,7.854,0,0,1,.447-2.736,6.1,6.1,0,0,1,1.259-2.082,5.346,5.346,0,0,1,1.951-1.325,7.155,7.155,0,0,1,5.037,0,5.285,5.285,0,0,1,1.935,1.325,6.07,6.07,0,0,1,1.243,2.082A7.723,7.723,0,0,1,327.259,29.962Zm-6.143-4.819a3.56,3.56,0,0,0-2.895,1.27,5.4,5.4,0,0,0-1.057,3.549,5.446,5.446,0,0,0,1.041,3.559,3.564,3.564,0,0,0,2.911,1.259,3.517,3.517,0,0,0,2.894-1.27,5.492,5.492,0,0,0,1.03-3.549A5.463,5.463,0,0,0,324,26.413,3.521,3.521,0,0,0,321.116,25.143Z" transform="translate(-188.137 -18.487)" fill="#fff"/>
  </g>
  <g id="Group_4" data-name="Group 4">
    <g id="Group_2" data-name="Group 2">
      <path id="Path_12" data-name="Path 12" d="M12.043,17.62,14.682,15.1l.36.36.12-.12.491.48-.12.125.3.3L14.213,17.9l3.581.24s6.983-7.021,7.452-7.452,3.429-2.769,4.279-1.919c.4.4.262,2.262-2.262,4.786l-7.032,7.032.311,3.663L22.188,22.6l.343.343.131-.131.425.425-.125.125.343.343L20.717,26.3l1.341,12.079A19.292,19.292,0,1,0,.34,16.617Z" transform="translate(-0.156 0.03)" fill="#fff"/>
      <path id="Path_13" data-name="Path 13" d="M12.843,37.707.022,33.57A19.255,19.255,0,0,0,4.1,46.451Z" transform="translate(0.004 -15.261)" fill="#fff"/>
      <path id="Path_14" data-name="Path 14" d="M21.583,46.48l-8.662,8.858A19.245,19.245,0,0,0,26.08,59.7Z" transform="translate(-5.879 -21.133)" fill="#28a8e0"/>
    </g>
    <g id="Group_3" data-name="Group 3" transform="translate(7.042 5.559)">
      <path id="Path_15" data-name="Path 15" d="M43.856,18.209,36.83,25.236l.311,3.663,1.646-1.646.343.343.131-.131.425.425-.125.125.343.343-2.589,2.589,1.341,12.079A19.289,19.289,0,0,0,49.591,10.18l-3.38,3.38C46.478,14.148,46.168,15.9,43.856,18.209Z" transform="translate(-23.797 -10.18)" fill="#e8e8e8"/>
      <path id="Path_16" data-name="Path 16" d="M21.583,46.48l-8.662,8.858A19.126,19.126,0,0,0,26.08,59.7Z" transform="translate(-12.921 -26.693)" fill="#e8e8e8"/>
    </g>
  </g>
</svg>
